# AST/ASF file generated using VICON BodyLanguage
# -----------------------------------------------
:version 1.10
:name VICON
:units
  mass 1.0
  length 0.45
  angle deg
:documentation
   .ast/.asf automatically generated from VICON data using
   VICON BodyBuilder and BodyLanguage model FoxedUp or BRILLIANT.MOD
:root
   order TX TY TZ RX RY RZ
   axis XYZ
   position 0 0 0  
   orientation 0 0 0 
:bonedata
  begin
     id 1 
     name lhipjoint
     direction 0.566809 -0.746272 0.349008 
     length 2.40479 
     axis 0 0 0  XYZ
  end
  begin
     id 2 
     name lfemur
     direction 0.34202 -0.939693 0  
     length 7.1578  
     axis 0 0 20  XYZ
    dof rx ry rz
    limits (-160.0 20.0)
           (-70.0 70.0)
           (-60.0 70.0)
  end
  begin
     id 3 
     name ltibia
     direction 0.34202 -0.939693 0   
     length 7.49137   
     axis 0 0 20   XYZ
    dof rx
    limits (-10.0 170.0)
  end
  begin
     id 4 
     name lfoot
     direction 0.0665746 -0.182912 0.980873   
     length 2.36784   
     axis -90 7.62852e-016 20   XYZ
    dof rx rz
    limits (-45.0 90.0)
           (-70.0 20.0)
  end
  begin
     id 5 
     name ltoes
     direction 1.53601e-011 -4.22058e-011 1   
     length 1.18966   
     axis -90 7.62852e-016 20   XYZ
    dof rx
    limits (-90.0 20.0)
  end
  begin
     id 6 
     name rhipjoint
     direction -0.550236 -0.756381 0.353735   
     length 2.37265  
     axis 0 0 0  XYZ 
  end
  begin
     id 7 
     name rfemur
     direction -0.34202 -0.939693 0   
     length 7.43386   
     axis 0 0 -20   XYZ
    dof rx ry rz
    limits (-160.0 20.0)
           (-70.0 70.0)
           (-70.0 60.0)
  end
  begin
     id 8 
     name rtibia
     direction -0.34202 -0.939693 0   
     length 7.50908   
     axis 0 0 -20   XYZ
    dof rx
    limits (-10.0 170.0)
 end
 begin
     id 9 
     name rfoot
     direction -0.0683029 -0.187661 0.979856   
     length 2.41173  
     axis -90 -7.62852e-016 -20   XYZ
    dof rx rz
    limits (-45.0 90.0)
           (-20.0 70.0)
  end
  begin
     id 10 
     name rtoes
     direction -1.53528e-011 -4.21968e-011 1   
     length 1.21082   
     axis -90 -7.62852e-016 -20   XYZ
    dof rx
    limits (-90.0 20.0)
  end
  begin
     id 11 
     name lowerback
     direction 0.013823 0.995423 -0.0945635   
     length 2.04495   
     axis 0 0 0   XYZ
    dof rx ry rz
    limits (-20.0 45.0)
           (-30.0 30.0)
           (-30.0 30.0)
  end
  begin
     id 12 
     name upperback
     direction 0.0276657 0.9994 -0.020853   
     length 2.05008   
     axis 0 0 0   XYZ
    dof rx ry rz
    limits (-20.0 45.0)
           (-30.0 30.0)
           (-30.0 30.0)
  end
  begin
     id 13 
     name thorax
     direction 0.019782 0.999531 0.0233827   
     length 2.06488   
     axis 0 0 0   XYZ
    dof rx ry rz
    limits (-20.0 45.0)
           (-30.0 30.0)
           (-30.0 30.0)
  end
  begin
     id 14 
     name lowerneck
     direction -0.0308541 0.994709 0.0979874   
     length 1.75553   
     axis 0 0 0   XYZ
    dof rx ry rz
    limits (-20.0 45.0)
           (-30.0 30.0)
           (-30.0 30.0)
  end
  begin
     id 15 
     name upperneck
     direction 0.0588398 0.995804 -0.0700903   
     length 1.76878   
     axis 0 0 0   XYZ
    dof rx ry rz
    limits (-20.0 45.0)
           (-30.0 30.0)
           (-30.0 30.0)
  end
  begin
     id 16
     name head
     direction 0.0209966 0.999159 -0.0352225  
     length 1.77193  
     axis 0 0 0   XYZ
    dof rx ry rz
    limits (-20.0 45.0)
           (-30.0 30.0)
           (-30.0 30.0)
  end
  begin
     id 17 
     name lclavicle
     direction 0.938182 0.335073 -0.0868338  
     length 3.58396  
     axis 0 0 0   XYZ
    dof ry rz
    limits (-20.0 10.0)
           (0.0 20.0)
  end
  begin
     id 18 
     name lhumerus
     direction 1 -4.48971e-011 -1.26313e-017   
     length 4.983   
     axis 180 -30 -90   XYZ
    dof rx ry rz
    limits (-60.0 90.0)
           (-90.0 90.0)
           (-90.0 90.0)
  end
  begin
     id 19
     name lradius
     direction 1 -4.48948e-011 -5.89033e-027   
     length 3.48356   
     axis 180 -30 -90   XYZ
    dof rx
    limits (-10.0 170.0)
  end
  begin
     id 20
     name lwrist
     direction 1 -4.48977e-011 -1.48983e-026   
     length 1.74178   
     axis 9.0955e-015 90 90   XYZ
    dof ry
    limits (-180.0 0.0)
 end
  begin
     id 21 
     name lhand
     direction 1 -4.49046e-011 -2.98066e-026   
     length 0.715259   
     axis 1.90115e-014 90 90   XYZ
    dof rx rz
    limits (-90.0 90.0)
           (-45.0 45.0)
  end
  begin
     id 22 
     name lfingers
     direction 1 -4.48907e-011 -5.95731e-026   
     length 0.576661   
     axis 3.80223e-014 90 90   XYZ
    dof rx
    limits (0.0 90.0)
  end
  begin
     id 23
     name lthumb
     direction 0.707107 -6.34963e-011 0.707107   
     length 0.827973   
     axis -90 45 -3.84942e-014   XYZ
    dof rx rz
    limits (-45.0 45.0)
           (-45.0 45.0)
  end
  begin
     id 24 
     name rclavicle
     direction -0.909637 0.398485 -0.11735   
     length 3.44819  
     axis 0 0 0   XYZ 
    dof ry rz
    limits (-10.0 20.0)
           (-20.0 0.0)
  end
  begin
     id 25 
     name rhumerus
     direction -1 -4.48978e-011 -1.09333e-027  
     length 5.2419   
     axis 180 30 90   XYZ
    dof rx ry rz
    limits (-90.0 60.0)
           (-90.0 90.0)
           (-90.0 90.0)
  end
  begin
     id 26 
     name rradius
     direction -1 -4.48953e-011 -7.61841e-027   
     length 3.44417   
     axis 180 30 90   XYZ
    dof rx
    limits (-10.0 170.0)
  end
  begin
     id 27 
     name rwrist
     direction -1 -4.48977e-011 -1.48983e-026   
     length 1.72209   
     axis 9.0955e-015 -90 -90   XYZ
    dof ry
    limits (-180.0 0.0)
  end
  begin
     id 28
     name rhand
     direction -1 -4.49027e-011 -2.98038e-026   
     length 0.622529   
     axis 1.90115e-014 -90 -90   XYZ
    dof rx rz
    limits (-90.0 90.0)
           (-45.0 45.0)
  end
  begin
     id 29
     name rfingers
     direction -1 -4.48838e-011 -5.95531e-026   
     length 0.501899   
     axis 3.80223e-014 -90 -90   XYZ
    dof rx
    limits (0.0 90.0)
  end
  begin
     id 30
     name rthumb
     direction -0.707107 -6.34937e-011 0.707107   
     length 0.720629   
     axis -90 -45 3.84942e-014   XYZ
    dof rx rz
    limits (-45.0 45.0)
           (-45.0 45.0)
  end
:hierarchy
  begin
    root lhipjoint rhipjoint lowerback
    lhipjoint lfemur
    lfemur ltibia
    ltibia lfoot
    lfoot ltoes
    rhipjoint rfemur
    rfemur rtibia
    rtibia rfoot
    rfoot rtoes
    lowerback upperback
    upperback thorax
    thorax lowerneck lclavicle rclavicle
    lowerneck upperneck
    upperneck head
    lclavicle lhumerus
    lhumerus lradius
    lradius lwrist
    lwrist lhand lthumb
    lhand lfingers
    rclavicle rhumerus
    rhumerus rradius
    rradius rwrist
    rwrist rhand rthumb
    rhand rfingers
  end

#!OML:ASF H:\Terrain\Patient Classification 1\PLAYGROUND\JustinFriday\JustinFriday.ASF
:FULLY-SPECIFIED
:DEGREES
117
root -3.3793 17.5474 15.1428 108.437 -80.8631 -106.751
lowerback 10.6572 1.50909 2.51027
upperback 4.42759 2.04428 -1.13399
thorax -1.22519 0.981264 -2.81843
lowerneck 5.16929 -12.7641 -15.2187
upperneck 10.3878 -18.6638 10.3944
head 4.69123 -9.57222 4.73815
rclavicle -1.43125e-014 0
rhumerus -28.7687 5.7423 -82.547
rradius 47.7279
rwrist -13.5902
rhand -10.4411 -19.4541
rfingers 7.12502
rthumb 15.5589 -48.8482
lclavicle -1.43125e-014 0
lhumerus -33.9348 21.1141 70.6966
lradius 24.5307
lwrist -2.66323
lhand -14.9491 -2.75362
lfingers 7.12502
lthumb 11.2138 26.9267
rfemur -1.37799 1.2813 30.0063
rtibia 50.3043
rfoot -1.73886 -22.9021
rtoes 12.9691
lfemur -23.523 5.02766 -4.8458
ltibia 32.2139
lfoot -7.40638 -6.1236
ltoes 2.66709
118
root -3.52247 17.5848 15.1886 110.16 -81.3718 -108.646
lowerback 10.7634 1.38875 2.05016
upperback 4.52359 1.83165 -1.25871
thorax -1.2096 0.869742 -2.66665
lowerneck 5.0326 -12.8078 -15.3311
upperneck 10.675 -18.7133 10.2035
head 4.80144 -9.60245 4.67233
rclavicle -8.74653e-015 3.97569e-014
rhumerus -28.9843 6.33505 -82.8779
rradius 47.5462
rwrist -13.4282
rhand -10.9875 -20.4435
rfingers 7.12502
rthumb 15.0326 -49.8778
lclavicle -8.74653e-015 3.97569e-014
lhumerus -33.941 21.3821 70.474
lradius 24.2389
lwrist -3.22161
lhand -13.9209 -2.87541
lfingers 7.12502
lthumb 12.2054 26.7485
rfemur -2.65764 0.424768 29.1671
rtibia 52.6548
rfoot 0.578371 -23.1902
rtoes 15.3994
lfemur -22.4303 4.84027 -5.66319
ltibia 31.5958
lfoot -7.84031 -5.70409
ltoes 1.42775
119
root -3.65976 17.6368 15.2274 112.163 -81.8697 -110.787
lowerback 10.9182 1.3188 1.35627
upperback 4.57542 1.66676 -1.25298
thorax -1.27297 0.777236 -2.2546
lowerneck 4.32668 -12.9726 -13.6804
upperneck 11.3499 -18.6891 8.63754
head 4.81806 -9.55913 3.9231
rclavicle 7.95139e-016 5.725e-014
rhumerus -29.3671 7.26982 -83.2374
rradius 47.6875
rwrist -13.6899
rhand -10.9579 -21.0205
rfingers 7.12502
rthumb 15.061 -50.4526
lclavicle 7.95139e-016 5.725e-014
lhumerus -34.0149 21.5193 70.4848
lradius 24.1063
lwrist -3.98379
lhand -13.884 -2.94196
lfingers 7.12502
lthumb 12.241 26.6798
rfemur -3.93996 -0.0625766 28.3628
rtibia 54.9183
rfoot 0.529529 -23.9495
rtoes 22.3088
lfemur -21.284 4.5418 -6.44239
ltibia 30.8455
lfoot -7.82636 -5.20982
ltoes 1.84983
120
root -3.79486 17.6773 15.2532 114.293 -82.0775 -113.023
lowerback 11.019 1.29884 0.853019
upperback 4.59771 1.58722 -1.23813
thorax -1.32437 0.73018 -1.94888
lowerneck 5.01783 -12.61 -14.698
upperneck 10.996 -18.4109 9.68962
head 4.75582 -9.45211 4.45717
rclavicle 2.38542e-014 2.38542e-014
rhumerus -29.8686 7.82134 -83.5995
rradius 47.8855
rwrist -13.6602
rhand -9.77244 -20.8313
rfingers 7.12502
rthumb 16.2028 -50.1742
lclavicle 2.38542e-014 2.38542e-014
lhumerus -33.9027 20.9813 70.5701
lradius 23.8988
lwrist -4.19852
lhand -13.6952 -3.062
lfingers 7.12502
lthumb 12.423 26.5488
rfemur -5.23024 -0.306785 27.9724
rtibia 57.0235
rfoot -0.163893 -25.1626
rtoes 26.9843
lfemur -20.1622 4.53534 -6.87565
ltibia 30.0607
lfoot -7.79653 -4.93339
ltoes 2.40585
121
root -3.92841 17.6972 15.2768 115.263 -82.2498 -114.009
lowerback 11.0478 1.20385 0.578182
upperback 4.5793 1.43394 -1.23838
thorax -1.37282 0.650501 -1.77731
lowerneck 5.20104 -12.4692 -16.4506
upperneck 11.4096 -18.506 11.0303
head 5.15481 -9.53875 5.08711
rclavicle 8.34896e-015 -1.27222e-014
rhumerus -30.3157 8.05824 -83.8225
rradius 47.7377
rwrist -12.8848
rhand -8.73997 -19.9963
rfingers 7.12502
rthumb 17.1967 -49.2553
lclavicle 8.34896e-015 -1.27222e-014
lhumerus -33.8161 20.4798 70.531
lradius 23.7606
lwrist -4.47031
lhand -12.8435 -3.11093
lfingers 7.12502
lthumb 13.244 26.4483
rfemur -6.57662 -0.884823 27.769
rtibia 58.9158
rfoot -0.0113478 -26.3149
rtoes 26.9104
lfemur -19.3078 4.6612 -7.20955
ltibia 29.4265
lfoot -7.76419 -5.00276
ltoes 3.71571
